# xmcd CD database file
# Copyright (C) 1993-1998 Ti Kan
# 
# Track frame offsets:
#     150
#     19218
#     34475
# 
# Disc length: 574 seconds
# 
# Revision: 1
# Processed by: cddbd v1.4b41PL1 Copyright (c) Steve Scherf et al.
# Submitted via: DiscPlay 4.0.4
# 
DISCID=21023c03
DTITLE=Jimmy Nail - Crocodile Shoes
DYEAR=1900
DGENRE=
TTITLE0=Crocodile Shoes
TTITLE1=Calling Out Your Name (Jed's Demo)
TTITLE2=Once Upon a Time (Jed's Demo)
EXTD=
EXTT0=
EXTT1=
EXTT2=
PLAYORDER=
